<svg width="50" height="50" viewBox="0 0 50 50" fill="none" xmlns="http://www.w3.org/2000/svg">
<path d="M40 0H10C4.47715 0 0 4.47715 0 10V40C0 45.5228 4.47715 50 10 50H40C45.5228 50 50 45.5228 50 40V10C50 4.47715 45.5228 0 40 0Z" fill="#5765F2"/>
<path d="M38.9483 12.2035C36.3829 11.0264 33.6319 10.1591 30.7555 9.66245C30.7032 9.65288 30.6508 9.67682 30.6238 9.72476V9.72476C29.951 10.9214 28.6562 11.6625 27.2872 11.5597C25.7595 11.4449 24.2375 11.4439 22.7252 11.5565C21.3552 11.6585 20.0416 10.921 19.366 9.72476V9.72476C19.339 9.67845 19.2866 9.65451 19.2343 9.66245C16.3595 10.1576 13.6085 11.0248 11.0415 12.2035C11.0193 12.2131 11.0003 12.2291 10.9876 12.2498C5.76953 20.0455 4.34009 27.6496 5.04134 35.1594C5.04453 35.1961 5.06515 35.2313 5.09371 35.2536C8.53646 37.7819 11.8713 39.3168 15.1443 40.3341C15.1966 40.3501 15.2521 40.3309 15.2855 40.2878C16.0596 39.2306 16.7498 38.1158 17.3416 36.9434C17.3765 36.8748 17.3432 36.7933 17.2718 36.7661C16.1771 36.3509 15.1347 35.8446 14.132 35.2696C14.0527 35.2233 14.0463 35.1099 14.1193 35.0556C14.3303 34.8974 14.5414 34.7329 14.7429 34.5668C14.7793 34.5365 14.8301 34.5301 14.873 34.5493C21.4602 37.5568 28.5916 37.5568 35.101 34.5493C35.1439 34.5285 35.1947 34.5349 35.2327 34.5653C35.4343 34.7314 35.6453 34.8974 35.8578 35.0556C35.9308 35.1099 35.926 35.2233 35.8467 35.2696C34.844 35.8558 33.8017 36.3509 32.7054 36.7646C32.634 36.7917 32.6023 36.8748 32.6372 36.9434C33.2417 38.1141 33.9318 39.2289 34.6917 40.2863C34.7235 40.3311 34.7805 40.3502 34.8329 40.3342C38.1217 39.3168 41.4566 37.7819 44.8993 35.2537C44.9295 35.2314 44.9485 35.1978 44.9517 35.1611C45.791 26.4789 43.546 18.9372 39.0006 12.2515C38.9895 12.2291 38.9705 12.2131 38.9483 12.2035ZM18.3252 30.5867C16.342 30.5867 14.7079 28.766 14.7079 26.5299C14.7079 24.2939 16.3103 22.4732 18.3252 22.4732C20.3559 22.4732 21.9742 24.3099 21.9425 26.5299C21.9425 28.7659 20.34 30.5867 18.3252 30.5867ZM31.6995 30.5867C29.7163 30.5867 28.0822 28.766 28.0822 26.5299C28.0822 24.2939 29.6846 22.4732 31.6995 22.4732C33.7302 22.4732 35.3485 24.3099 35.3168 26.5299C35.3168 28.7659 33.7303 30.5867 31.6995 30.5867Z" fill="white"/>
</svg>
