<svg width="50" height="50" viewBox="0 0 50 50" fill="none" xmlns="http://www.w3.org/2000/svg">
<path d="M25.0002 0C11.1948 0 0 11.476 0 25.633C0 36.9583 7.16333 46.5666 17.0967 49.9561C18.3461 50.1934 18.8048 49.4 18.8048 48.723C18.8048 48.1118 18.7816 46.0925 18.7708 43.9506C11.8157 45.5012 10.3481 40.9263 10.3481 40.9263C9.21089 37.9635 7.57233 37.1757 7.57233 37.1757C5.30411 35.5848 7.74333 35.6174 7.74333 35.6174C10.2538 35.7982 11.5757 38.2589 11.5757 38.2589C13.8054 42.1776 17.4241 41.0446 18.8508 40.3897C19.0751 38.733 19.7231 37.6022 20.438 36.9621C14.8851 36.314 9.04778 34.116 9.04778 24.2941C9.04778 21.4956 10.0243 19.209 11.6237 17.4139C11.3641 16.7683 10.5083 14.1611 11.8659 10.6304C11.8659 10.6304 13.9652 9.94152 18.7428 13.2579C20.737 12.69 22.8757 12.4052 25.0003 12.3954C27.125 12.4052 29.2653 12.69 31.2632 13.2579C36.0349 9.94152 38.1313 10.6304 38.1313 10.6304C39.4921 14.1611 38.636 16.7683 38.3764 17.4139C39.9794 19.209 40.9494 21.4956 40.9494 24.2941C40.9494 34.1393 35.101 36.3071 29.534 36.9417C30.4307 37.7371 31.2297 39.2971 31.2297 41.6885C31.2297 45.1183 31.2007 47.8786 31.2007 48.7228C31.2007 49.405 31.6507 50.2043 32.9179 49.9525C42.8458 46.5593 50 36.9544 50 25.633C50 11.476 38.8069 0 25.0002 0ZM9.36344 36.5147C9.30833 36.6421 9.113 36.6802 8.935 36.5929C8.75367 36.5092 8.65178 36.3356 8.71067 36.2079C8.76444 36.0768 8.96033 36.0402 9.14122 36.1282C9.32278 36.2116 9.42633 36.3869 9.36344 36.5147ZM10.5931 37.6397C10.4739 37.7531 10.2408 37.7004 10.0827 37.5212C9.91911 37.3425 9.88856 37.1036 10.0094 36.9885C10.1324 36.8752 10.3584 36.9282 10.5223 37.107C10.6859 37.2878 10.7178 37.5251 10.5931 37.6397ZM11.4368 39.0792C11.2836 39.1884 11.0331 39.0861 10.8783 38.8581C10.7251 38.6301 10.7251 38.3568 10.8817 38.2473C11.0369 38.1378 11.2837 38.2362 11.4406 38.4625C11.5932 38.6942 11.5932 38.9676 11.4368 39.0792ZM12.8636 40.7463C12.7266 40.9012 12.4347 40.8596 12.221 40.6482C12.0024 40.4414 11.9416 40.1482 12.079 39.9932C12.2177 39.8378 12.5112 39.8816 12.7264 40.0913C12.9434 40.2976 13.0097 40.593 12.8636 40.7463ZM14.7076 41.3091C14.6471 41.5098 14.366 41.601 14.0829 41.5158C13.8001 41.428 13.6151 41.1928 13.6722 40.99C13.731 40.7879 14.0133 40.6928 14.2986 40.7841C14.5809 40.8715 14.7663 41.1049 14.7076 41.3091ZM16.806 41.5478C16.813 41.7592 16.5729 41.9345 16.2757 41.9384C15.9768 41.9452 15.735 41.7741 15.7317 41.5661C15.7317 41.3526 15.9664 41.179 16.2653 41.1738C16.5627 41.1679 16.806 41.3376 16.806 41.5478ZM18.8676 41.4667C18.9031 41.673 18.6966 41.8848 18.4014 41.9413C18.1112 41.9957 17.8426 41.8683 17.8057 41.6637C17.7697 41.4523 17.98 41.2405 18.2698 41.1858C18.5654 41.1332 18.8299 41.2571 18.8676 41.4667Z" fill="#161614"/>
</svg>
