<svg width="50" height="45" viewBox="0 0 50 45" fill="none" xmlns="http://www.w3.org/2000/svg">
<path d="M50 22.5051C50 19.1577 45.852 15.9854 39.4925 14.0181C40.96 7.46738 40.3078 2.25566 37.4338 0.587091C36.7713 0.195697 35.9967 0.0102997 35.1508 0.0102997V2.30716C35.6196 2.30716 35.9967 2.39986 36.3127 2.57496C37.6987 3.37835 38.3 6.4374 37.8312 10.3719C37.7191 11.3401 37.5357 12.3598 37.3115 13.4001C35.3139 12.9057 33.1329 12.5246 30.8398 12.2774C29.4639 10.3719 28.0371 8.64156 26.6001 7.12749C29.9225 4.00664 33.0412 2.29686 35.161 2.29686V0C32.3583 0 28.6894 2.01877 24.9796 5.52071C21.2699 2.03937 17.6009 0.0411995 14.7982 0.0411995V2.33806C16.9079 2.33806 20.0367 4.03754 23.3592 7.13779C21.9323 8.65187 20.5055 10.3719 19.15 12.2774C16.8467 12.5246 14.6657 12.9057 12.6682 13.4104C12.4338 12.3804 12.2605 11.3813 12.1382 10.4234C11.6592 6.4889 12.2503 3.42985 13.6262 2.61616C13.9319 2.43076 14.3294 2.34836 14.7982 2.34836V0.0514992C13.9421 0.0514992 13.1675 0.236896 12.4949 0.62829C9.63106 2.29686 8.98899 7.49828 10.4668 14.0284C4.1276 16.0059 0 19.168 0 22.5051C0 25.8526 4.14798 29.0249 10.5075 30.9922C9.03995 37.5429 9.69221 42.7546 12.5662 44.4232C13.2287 44.8146 14.0033 45 14.8594 45C17.662 45 21.331 42.9812 25.0408 39.4793C28.7505 42.9606 32.4195 44.9588 35.2222 44.9588C36.0783 44.9588 36.8528 44.7734 37.5255 44.382C40.3893 42.7134 41.0314 37.512 39.5536 30.9819C45.8724 29.0146 50 25.8423 50 22.5051ZM36.7305 15.6352C36.3534 16.9638 35.8846 18.3337 35.3547 19.7036C34.9368 18.8796 34.4986 18.0556 34.0196 17.2316C33.5508 16.4076 33.0514 15.6043 32.552 14.8215C33.9992 15.0378 35.3954 15.3056 36.7305 15.6352ZM32.0628 26.6045C31.2678 27.995 30.4525 29.3133 29.6066 30.539C28.0881 30.6729 26.5491 30.745 25 30.745C23.4611 30.745 21.9221 30.6729 20.4138 30.5493C19.5679 29.3236 18.7424 28.0156 17.9474 26.6354C17.1728 25.2861 16.4696 23.9162 15.8276 22.536C16.4594 21.1559 17.1729 19.7757 17.9372 18.4264C18.7322 17.0359 19.5475 15.7176 20.3934 14.4919C21.9119 14.358 23.4509 14.2859 25 14.2859C26.5389 14.2859 28.0779 14.358 29.5862 14.4816C30.4321 15.7073 31.2576 17.0153 32.0526 18.3955C32.8272 19.7448 33.5304 21.1147 34.1724 22.4948C33.5304 23.875 32.8271 25.2552 32.0628 26.6045ZM35.3547 25.2655C35.905 26.6457 36.3738 28.0259 36.7611 29.3648C35.426 29.6944 34.0196 29.9725 32.5622 30.1888C33.0616 29.3957 33.5609 28.5821 34.0298 27.7478C34.4986 26.9238 34.9368 26.0895 35.3547 25.2655ZM25.0204 36.2554C24.0726 35.2666 23.1247 34.1646 22.1871 32.9595C23.1044 33.0007 24.042 33.0316 24.9898 33.0316C25.9478 33.0316 26.8956 33.011 27.8231 32.9595C26.9058 34.1646 25.958 35.2666 25.0204 36.2554ZM17.4378 30.1888C15.9906 29.9725 14.5944 29.7047 13.2593 29.3751C13.6364 28.0465 14.1052 26.6766 14.6351 25.3067C15.053 26.1307 15.4912 26.9547 15.9702 27.7787C16.4492 28.6027 16.9384 29.406 17.4378 30.1888ZM24.9694 8.75486C25.9172 9.74365 26.8651 10.8457 27.8027 12.0508C26.8854 12.0096 25.9478 11.9787 25 11.9787C24.042 11.9787 23.0942 11.9993 22.1667 12.0508C23.084 10.8457 24.0318 9.74365 24.9694 8.75486ZM17.4276 14.8215C16.9283 15.6146 16.4289 16.4282 15.96 17.2625C15.4912 18.0865 15.053 18.9105 14.6351 19.7345C14.0848 18.3543 13.616 16.9741 13.2287 15.6352C14.5638 15.3159 15.9702 15.0378 17.4276 14.8215ZM8.20424 27.7169C4.59641 26.1616 2.26254 24.1222 2.26254 22.5051C2.26254 20.8881 4.59641 18.8384 8.20424 17.2934C9.08072 16.9123 10.0387 16.5724 11.0273 16.2531C11.6082 18.2719 12.3726 20.3731 13.3204 22.5257C12.3828 24.6681 11.6286 26.759 11.0579 28.7674C10.0489 28.4482 9.09091 28.098 8.20424 27.7169ZM13.6873 42.4353C12.3013 41.6319 11.7 38.5729 12.1688 34.6384C12.2809 33.6702 12.4643 32.6505 12.6885 31.6102C14.6861 32.1046 16.8671 32.4857 19.1602 32.7329C20.5361 34.6384 21.9629 36.3687 23.3999 37.8828C20.0775 41.0037 16.9588 42.7134 14.839 42.7134C14.3803 42.7031 13.9931 42.6104 13.6873 42.4353ZM37.8618 34.5869C38.3408 38.5214 37.7497 41.5805 36.3738 42.3941C36.0681 42.5795 35.6706 42.6619 35.2018 42.6619C33.0921 42.6619 29.9633 40.9625 26.6409 37.8622C28.0677 36.3481 29.4945 34.6281 30.85 32.7226C33.1533 32.4754 35.3343 32.0943 37.3318 31.5896C37.5662 32.6299 37.7497 33.629 37.8618 34.5869ZM41.7856 27.7169C40.9091 28.098 39.9511 28.4379 38.9625 28.7572C38.3816 26.7384 37.6172 24.6372 36.6694 22.4845C37.607 20.3422 38.3612 18.2513 38.9319 16.2428C39.9409 16.5621 40.8989 16.9123 41.7958 17.2934C45.4036 18.8487 47.7375 20.8881 47.7375 22.5051C47.7273 24.1222 45.3934 26.1719 41.7856 27.7169Z" fill="#6B77E5"/>
<path d="M25 27C27.2091 27 29 25.2091 29 23C29 20.7909 27.2091 19 25 19C22.7909 19 21 20.7909 21 23C21 25.2091 22.7909 27 25 27Z" fill="#6B77E5"/>
</svg>
