<svg width="50" height="50" viewBox="0 0 50 50" fill="none" xmlns="http://www.w3.org/2000/svg">
<path d="M28.8871 41.2124C28.8871 38.3985 28.8871 35.5847 28.8872 32.7709C28.8872 32.4336 28.8878 32.4332 29.2211 32.4332C30.9289 32.433 32.6368 32.4332 34.3446 32.4331C34.718 32.4331 34.7175 32.4329 34.7724 32.072C35.0934 29.9648 35.4147 27.8578 35.7357 25.7506C35.7526 25.6398 35.7705 25.5289 35.784 25.4175C35.8141 25.1685 35.8131 25.1671 35.5527 25.1671C33.4407 25.1668 31.3285 25.167 29.2164 25.1668C28.8881 25.1668 28.8873 25.1663 28.8872 24.8451C28.8869 23.3785 28.8784 21.9119 28.8903 20.4454C28.8974 19.5695 29.0614 18.7288 29.5724 17.9907C30.1287 17.1871 30.9256 16.7846 31.8561 16.6067C32.2132 16.5384 32.5736 16.5147 32.9373 16.5163C33.9062 16.5208 34.8751 16.5181 35.844 16.517C36.1046 16.5167 36.117 16.5045 36.1171 16.2435C36.1178 14.356 36.1168 12.4685 36.1185 10.581C36.1186 10.4353 36.1064 10.3282 35.9216 10.3008C34.038 10.0224 32.1469 9.8161 30.2413 9.84953C28.6365 9.87772 27.0862 10.1825 25.6436 10.9385C24.1634 11.7141 23.0377 12.8394 22.2647 14.3283C21.652 15.5084 21.3365 16.7707 21.1872 18.086C21.0719 19.101 21.1213 20.1179 21.1141 21.1341C21.1053 22.3832 21.1123 23.6322 21.1117 24.8813C21.1116 25.1592 21.1048 25.1663 20.8318 25.1664C18.9079 25.167 16.9839 25.1666 15.06 25.1669C14.7585 25.1669 14.7578 25.1676 14.7577 25.4678C14.7576 27.6851 14.7578 29.9024 14.7582 32.1197C14.7583 32.432 14.7592 32.4329 15.0748 32.4329C16.9848 32.4332 18.8948 32.4329 20.8048 32.4332C21.1104 32.4332 21.1117 32.4341 21.1117 32.7334C21.112 38.3962 21.112 44.059 21.1117 49.7218C21.1117 50.0145 21.1001 50.023 20.8153 49.9755C18.5803 49.6026 16.4414 48.9221 14.3905 47.9543C12.1981 46.9197 10.2011 45.5898 8.39177 43.9705C6.00978 41.8387 4.10259 39.3405 2.6645 36.4782C1.5202 34.2006 0.753205 31.7991 0.329307 29.2845C0.0224084 27.4643 -0.055391 25.6283 0.0358086 23.7899C0.166708 21.151 0.709906 18.5912 1.659 16.1254C2.6541 13.5402 4.02739 11.1765 5.79708 9.04807C7.26847 7.27851 8.94137 5.73025 10.8305 4.42425C13.0301 2.90369 15.4094 1.75828 17.9739 1.00414C19.6324 0.516416 21.3221 0.196738 23.0431 0.0711826C24.4265 -0.029705 25.8126 -0.0244689 27.1978 0.0940389C29.2364 0.268427 31.2221 0.691714 33.1536 1.36299C36.0359 2.36482 38.6476 3.85396 40.9937 5.81714C42.9982 7.49458 44.6984 9.44175 46.098 11.6523C47.9859 14.6342 49.1927 17.8769 49.7197 21.374C49.8681 22.359 49.9466 23.3495 49.9833 24.3464C50.0728 26.7761 49.8019 29.1631 49.1972 31.5126C48.533 34.0935 47.4813 36.5047 46.0488 38.7492C44.9623 40.4516 43.6946 42.0033 42.2391 43.3955C40.6249 44.9396 38.8377 46.2483 36.8757 47.315C34.9508 48.3615 32.925 49.1355 30.7994 49.6493C30.2707 49.7771 29.7375 49.8828 29.202 49.9774C28.9115 50.0288 28.8875 50.0121 28.8874 49.7169C28.8869 47.2187 28.8871 44.7207 28.8871 42.2226C28.8871 41.886 28.8871 41.5492 28.8871 41.2124Z" fill="#1877F2"/>
</svg>
